<svg width="70" height="328" viewBox="0 0 70 328" fill="none" xmlns="http://www.w3.org/2000/svg">
<g clip-path="url(#clip0_16_76)">
<path d="M57.355 293.951C57.355 298.392 57.136 302.819 56.7126 307.231C56.5958 308.424 57.1944 310.221 58.2457 310.896C59.3993 311.644 59.8227 310.25 59.9103 309.387C60.3484 304.975 60.5528 300.534 60.5528 296.107C60.5528 294.871 60.144 293.161 59.0196 292.442C57.8953 291.723 57.355 293.046 57.355 293.951Z" fill="#C9E1C2"/>
<path d="M54.4931 267.29C54.6391 267.936 54.7705 268.597 54.9165 269.259C54.9604 269.46 54.9604 269.46 54.9165 269.259C54.9604 269.46 54.9896 269.661 55.0334 269.862C55.0918 270.164 55.1502 270.466 55.2086 270.768C55.4422 272.033 55.6612 273.297 55.8657 274.577C56.2745 277.164 56.5957 279.779 56.8294 282.381C56.9316 283.401 57.5448 285.284 58.7422 285.543C60.0125 285.802 60.0125 283.861 59.9541 283.143C59.4284 277.566 58.5231 272.018 57.3258 266.542C57.1506 265.723 56.3037 263.84 55.1648 264.142C54.0259 264.444 54.3471 266.528 54.5077 267.29H54.4931Z" fill="#C9E1C2"/>
<path d="M46.4476 242.87C47.4552 245.127 48.4043 247.412 49.295 249.726C49.733 250.862 50.1418 251.997 50.5507 253.147C50.3463 252.586 50.6091 253.319 50.6529 253.449C50.7697 253.794 50.8865 254.124 50.9887 254.469C51.1786 255.073 51.383 255.662 51.5728 256.266C51.821 257.071 52.5511 258.982 53.7338 258.666C54.9166 258.35 54.6245 256.266 54.3909 255.518C52.8139 250.474 50.9303 245.515 48.7693 240.686C48.4627 239.996 47.4552 238.357 46.5061 239.205C45.5569 240.053 46.0534 241.979 46.4476 242.885V242.87Z" fill="#C9E1C2"/>
<path d="M33.5983 219.443C36.3142 223.711 38.9279 228.052 41.3371 232.508C41.746 233.269 43.0017 234.16 43.542 232.996C44.1114 231.746 43.6296 230.194 43.0163 229.058C40.607 224.603 37.9933 220.276 35.2775 215.993C34.8248 215.275 33.6275 214.297 33.0726 215.505C32.5178 216.712 32.9266 218.379 33.5983 219.443Z" fill="#C9E1C2"/>
<path d="M20.6174 199.752C22.9537 203.331 25.3483 206.867 27.7138 210.431C27.9766 210.819 28.3855 211.38 28.9111 211.48C29.3492 211.566 29.7434 211.308 29.9186 210.92C30.4589 209.756 30.0792 208.016 29.393 206.982C27.0275 203.417 24.6329 199.867 22.2966 196.303C22.0338 195.915 21.6103 195.354 21.0993 195.253C20.6612 195.167 20.267 195.426 20.0918 195.814C19.5515 196.993 19.9311 198.703 20.6174 199.752Z" fill="#C9E1C2"/>
<path d="M6.89196 175.505C9.03839 180.306 11.5061 184.963 14.1927 189.504C14.6308 190.237 15.8573 191.172 16.3976 189.993C16.9379 188.814 16.5144 187.147 15.8719 186.055C14.6162 183.928 13.4043 181.772 12.2507 179.587C12.1777 179.443 12.0901 179.285 12.0171 179.127C11.8857 178.869 11.8565 178.825 11.9441 178.984C12.0317 179.142 12.0025 179.099 11.8711 178.84C11.7981 178.682 11.7105 178.538 11.6375 178.38C11.3746 177.848 11.0972 177.316 10.849 176.77C10.2941 175.62 9.75387 174.456 9.22821 173.292C8.92158 172.602 7.91407 170.964 6.96497 171.812C6.01587 172.66 6.49772 174.585 6.90656 175.491L6.89196 175.505Z" fill="#C9E1C2"/>
<path d="M0.0145841 146.156C-0.175237 152.178 0.788467 158.215 2.64287 163.95C2.9057 164.755 3.62117 166.666 4.8039 166.35C5.98663 166.034 5.6946 163.95 5.46097 163.202C3.8402 158.186 3.05171 153.544 3.21233 148.312C3.25613 147.09 2.77428 145.351 1.67916 144.647C0.584045 143.943 0.043787 145.265 0.0145841 146.156Z" fill="#C9E1C2"/>
<path d="M9.76847 118.446C6.3517 123.433 3.6504 128.794 1.89822 134.572C1.53318 135.793 2.11724 137.576 2.96413 138.496C3.81102 139.415 4.62871 139.07 4.96455 137.964C6.59992 132.574 9.31582 127.515 12.499 122.858C13.5211 121.363 11.2724 116.232 9.76847 118.446Z" fill="#C9E1C2"/>
<path d="M33.788 93.0778C28.4585 97.7202 23.2311 102.478 18.4272 107.666C17.5803 108.586 17.9015 110.325 18.3688 111.346C18.6462 111.935 19.7559 113.775 20.632 112.826C25.4213 107.637 30.6487 102.88 35.9929 98.2376C37.453 96.9728 35.4234 91.6549 33.788 93.0778Z" fill="#C9E1C2"/>
<path d="M53.8653 74.1633C50.1857 79.0788 45.7468 83.4193 40.7676 87.0556C40.3734 87.3431 40.2858 88.148 40.2712 88.5504C40.242 89.2547 40.4172 90.0883 40.7092 90.7207C41.0597 91.4968 41.9504 92.9484 42.9725 92.2011C47.9516 88.5504 52.3905 84.2242 56.0701 79.3087C56.844 78.2883 56.6396 76.7504 56.1285 75.6293C55.8803 75.0831 55.5591 74.4795 55.0334 74.1345C54.7122 73.9333 54.1427 73.7609 53.8653 74.1345V74.1633Z" fill="#C9E1C2"/>
<path d="M62.6554 48.5367C62.6554 48.3067 62.67 49.0829 62.67 49.1978C62.67 49.5572 62.67 49.9021 62.67 50.2614C62.67 50.8651 62.6408 51.4687 62.6116 52.0724C62.5386 53.2941 62.4072 54.4295 62.1881 55.6656C61.7355 58.1808 61.0346 60.6385 60.1001 63.0244C59.6037 64.2748 59.9249 65.8415 60.6258 66.9625C61.0492 67.638 62.3196 68.716 62.8306 67.4512C65.1377 61.6302 66.1452 55.5362 65.7655 49.2984C65.7071 48.278 65.0209 46.3951 63.8527 46.1364C62.5678 45.8634 62.597 47.8181 62.6408 48.5367H62.6554Z" fill="#C9E1C2"/>
<path d="M52.7555 27.4806C53.617 28.4436 54.4639 29.421 55.2524 30.4271C55.4714 30.7001 55.6904 30.9876 55.8949 31.2607C55.9825 31.3757 56.0993 31.5194 55.9387 31.3182C56.0263 31.4475 56.1285 31.5625 56.2161 31.6919C56.6103 32.2236 56.9754 32.7698 57.3404 33.3303C58.0413 34.4083 58.6984 35.5006 59.3116 36.6361C59.4285 36.8517 59.4431 36.866 59.3116 36.6361C59.3846 36.7798 59.4577 36.9092 59.5161 37.0529C59.6475 37.326 59.7935 37.6134 59.9249 37.9009C60.2169 38.5333 60.4944 39.18 60.7572 39.8412C61.0346 40.5598 62.0859 42.1552 63.0204 41.3216C63.9549 40.488 63.4439 38.5764 63.0788 37.6422C60.9324 32.238 57.5741 27.3657 53.6608 23.0395C53.3834 22.7376 52.9015 22.364 52.4489 22.4933C51.9962 22.6227 51.748 23.1688 51.675 23.5713C51.4268 24.8792 51.8356 26.5033 52.7409 27.495L52.7555 27.4806Z" fill="#C9E1C2"/>
<path d="M29.247 4.95828C33.7735 10.1756 39.103 14.6167 44.2428 19.216C44.564 19.5035 44.9729 19.8915 45.4547 19.7622C45.9074 19.6472 46.1556 19.0867 46.2286 18.6842C46.4476 17.5057 46.1264 15.6228 45.1627 14.7605C40.0083 10.1612 34.6934 5.72003 30.1669 0.502731C29.4076 -0.359633 28.3855 -0.100924 28.1664 1.03452C27.9182 2.35681 28.3417 3.93781 29.2324 4.95828H29.247Z" fill="#C9E1C2"/>
<path d="M66.6854 294.296C65.7071 299.959 64.5098 305.593 63.0935 311.17C62.4656 313.613 61.9545 316.2 61.0054 318.557C60.29 320.311 59.2678 321.978 57.1798 322.05L58.8882 323.185C54.9604 315.798 52.1715 307.792 50.6529 299.6C50.4631 298.565 49.9666 296.538 48.6525 296.308C47.3383 296.078 47.2653 298.004 47.3968 298.809C49.0905 308.654 52.3613 318.068 57.0922 326.893C57.4426 327.554 58.0267 328.058 58.8006 328.029C63.9111 327.828 64.9771 320.095 65.9262 316.459C67.5177 310.336 68.8465 304.156 69.927 297.918C70.1606 296.538 69.7956 294.799 68.7881 293.764C67.9704 292.902 66.9045 293.046 66.6708 294.325L66.6854 294.296Z" fill="#C9E1C2"/>
</g>
<defs>
<clipPath id="clip0_16_76">
<rect width="328" height="70" fill="white" transform="matrix(0 1 -1 0 70 0)"/>
</clipPath>
</defs>
</svg>
