<svg width="19" height="19" viewBox="0 0 19 19" fill="none" xmlns="http://www.w3.org/2000/svg">
<path d="M17.4561 10.5299L18.4561 10.5299L18.4561 8.52991L17.4561 8.52991L17.4561 10.5299ZM1.45605 8.52991C0.903771 8.52991 0.456055 8.97762 0.456055 9.52991C0.456055 10.0822 0.903771 10.5299 1.45606 10.5299L1.45605 8.52991ZM6.6099 17.5703L6.6099 18.5703L8.6099 18.5703L8.6099 17.5703L6.6099 17.5703ZM2.09826 8.79635C1.64849 8.47583 1.02406 8.5806 0.703539 9.03036C0.383019 9.48013 0.487791 10.1046 0.937554 10.4251L2.09826 8.79635ZM8.60995 1.57031L8.60995 0.570313L6.60995 0.570313L6.60995 1.57031L8.60995 1.57031ZM17.4561 8.52991L1.51795 8.52991L1.51795 10.5299L17.4561 10.5299L17.4561 8.52991ZM1.51795 8.52991L1.45605 8.52991L1.45606 10.5299L1.51795 10.5299L1.51795 8.52991ZM8.6099 17.5703C8.6099 16.3986 8.12341 15.2602 7.50655 14.271C6.88166 13.269 6.06484 12.328 5.27438 11.53C4.48028 10.7282 3.68993 10.048 3.09996 9.56915C2.80422 9.32911 2.55694 9.13817 2.38225 9.00627C2.29487 8.94029 2.22552 8.88899 2.17721 8.85361C2.15306 8.83591 2.13415 8.82219 2.12087 8.8126C2.11423 8.8078 2.10899 8.80404 2.10521 8.80133C2.10332 8.79997 2.10179 8.79887 2.10063 8.79804C2.10005 8.79763 2.09956 8.79728 2.09916 8.797C2.09896 8.79686 2.09874 8.79669 2.09864 8.79662C2.09844 8.79648 2.09826 8.79635 1.5179 9.61072C0.937554 10.4251 0.93742 10.425 0.93731 10.4249C0.937304 10.4249 0.937214 10.4248 0.937203 10.4248C0.937178 10.4248 0.937245 10.4249 0.937401 10.425C0.937718 10.4252 0.938395 10.4257 0.939431 10.4264C0.941504 10.4279 0.945006 10.4304 0.949891 10.434C0.959662 10.441 0.974963 10.4521 0.995427 10.4671C1.03636 10.4971 1.0979 10.5426 1.17709 10.6024C1.33556 10.722 1.56422 10.8985 1.83959 11.122C2.39188 11.5703 3.12453 12.2015 3.85342 12.9374C4.58597 13.677 5.29214 14.4998 5.8095 15.3294C6.33489 16.1718 6.6099 16.9329 6.6099 17.5703L8.6099 17.5703ZM1.51795 9.52991C1.98482 10.4142 1.9851 10.4141 1.98541 10.4139C1.98555 10.4138 1.98588 10.4137 1.98615 10.4135C1.98669 10.4132 1.98732 10.4129 1.98804 10.4125C1.98949 10.4118 1.99131 10.4108 1.99349 10.4096C1.99786 10.4073 2.00368 10.4042 2.01091 10.4003C2.02538 10.3924 2.0455 10.3815 2.0709 10.3674C2.12168 10.3393 2.19363 10.2987 2.28373 10.2461C2.4638 10.1411 2.71711 9.98753 3.01933 9.78876C3.62181 9.3925 4.42871 8.80991 5.23991 8.06584C6.82535 6.61159 8.60995 4.37121 8.60995 1.57031L6.60995 1.57031C6.60995 3.51285 5.34855 5.25227 3.88799 6.59196C3.1762 7.24485 2.46009 7.76277 1.92032 8.11778C1.65142 8.29463 1.42879 8.42942 1.27571 8.51875C1.19923 8.56338 1.1403 8.59655 1.10184 8.61785C1.08262 8.6285 1.06853 8.63617 1.05995 8.64081C1.05565 8.64313 1.05274 8.64469 1.05124 8.64549C1.0505 8.64589 1.05011 8.6461 1.05008 8.64611C1.05007 8.64612 1.05014 8.64608 1.05031 8.64599C1.05039 8.64594 1.05059 8.64584 1.05063 8.64582C1.05085 8.6457 1.05109 8.64558 1.51795 9.52991Z" fill="#224F34"/>
</svg>
