<svg width="189" height="42" viewBox="0 0 189 42" fill="none" xmlns="http://www.w3.org/2000/svg">
<path d="M11.8292 28.6082C10.9705 28.5335 10.4385 28.3002 10.2332 27.9082C10.0278 27.5162 9.92517 27.0122 9.92517 26.3962C9.92517 25.7242 10.0652 24.9028 10.3452 23.9322C10.6252 22.9428 10.9705 21.8695 11.3812 20.7122C11.8105 19.5548 12.2398 18.3975 12.6692 17.2402C12.4452 17.2588 12.2025 17.2868 11.9412 17.3242C11.6985 17.3428 11.3905 17.3802 11.0172 17.4362C10.6438 17.4735 10.1585 17.5388 9.56117 17.6322C9.5985 17.1468 9.77583 16.7735 10.0932 16.5122C10.4292 16.2322 10.8678 16.0268 11.4092 15.8962C11.9505 15.7655 12.5572 15.6908 13.2292 15.6722C13.7518 14.2348 14.2838 12.8348 14.8252 11.4722C15.3852 10.0908 15.9358 8.83085 16.4772 7.69218C16.2905 7.67351 16.1038 7.66418 15.9172 7.66418C15.7492 7.64551 15.5718 7.63618 15.3852 7.63618C14.1905 7.63618 13.2665 7.75751 12.6132 8.00018C11.9598 8.24285 11.5118 8.61618 11.2692 9.12018C11.0265 9.62418 10.9052 10.2682 10.9052 11.0522C10.9052 11.4628 10.9332 11.8455 10.9892 12.2002C11.0452 12.5362 11.1385 12.8908 11.2692 13.2642C10.6345 13.1522 10.1678 12.9095 9.86917 12.5362C9.5705 12.1442 9.42117 11.6588 9.42117 11.0802C9.42117 10.1095 9.7665 9.26018 10.4572 8.53218C11.1478 7.78551 12.0718 7.20685 13.2292 6.79618C14.4052 6.36685 15.7025 6.15218 17.1212 6.15218C18.1105 6.15218 19.0625 6.22685 19.9772 6.37618C20.9105 6.50685 21.8158 6.57218 22.6932 6.57218C23.0852 6.57218 23.4398 6.55351 23.7572 6.51618C24.0932 6.46018 24.4292 6.38551 24.7652 6.29218C24.0745 7.07618 23.4958 7.59885 23.0292 7.86018C22.5625 8.12151 22.0865 8.25218 21.6012 8.25218C21.1718 8.25218 20.6118 8.19618 19.9212 8.08418C19.2492 7.95351 18.4838 7.85085 17.6252 7.77618C17.3825 8.39218 17.1118 9.13885 16.8132 10.0162C16.5145 10.8748 16.2065 11.7988 15.8892 12.7882C15.5718 13.7588 15.2545 14.7295 14.9372 15.7002C15.8705 15.7562 16.7478 15.8402 17.5692 15.9522C18.4092 16.0642 19.1652 16.1295 19.8372 16.1482C19.6878 16.3722 19.5105 16.5495 19.3052 16.6802C19.1185 16.7922 18.8478 16.8762 18.4932 16.9322C18.1385 16.9882 17.6438 17.0348 17.0092 17.0722C16.3932 17.0908 15.5625 17.1095 14.5172 17.1282C14.4052 17.5202 14.2652 17.9868 14.0972 18.5282C13.9292 19.0695 13.7798 19.5828 13.6492 20.0682C13.5185 20.5535 13.4158 20.9082 13.3412 21.1322C12.9305 22.5695 12.5758 23.9135 12.2772 25.1642C11.9972 26.4148 11.8478 27.5628 11.8292 28.6082ZM23.0659 27.4042C21.9272 27.4042 21.0686 27.0868 20.4899 26.4522C19.9299 25.8362 19.6499 25.0708 19.6499 24.1562C19.6499 23.3162 19.8552 22.4295 20.2659 21.4962C20.6952 20.5628 21.2552 19.6855 21.9459 18.8642C22.6552 18.0428 23.4299 17.3802 24.2699 16.8762C25.1099 16.3535 25.9406 16.0922 26.7619 16.0922C27.1912 16.0922 27.5832 16.2042 27.9379 16.4282C28.3112 16.6522 28.4979 17.1095 28.4979 17.8002C28.4979 18.5095 28.2832 19.1815 27.8539 19.8162C27.4432 20.4322 26.8926 20.9828 26.2019 21.4682C25.5299 21.9535 24.7832 22.3548 23.9619 22.6722C23.1592 22.9708 22.3566 23.1575 21.5539 23.2322C21.5166 23.4188 21.4886 23.5962 21.4699 23.7642C21.4512 23.9322 21.4419 24.0908 21.4419 24.2402C21.4419 24.5202 21.4699 24.8002 21.5259 25.0802C21.6006 25.3602 21.7219 25.6215 21.8899 25.8642C22.0579 26.0882 22.2819 26.2655 22.5619 26.3962C22.8606 26.5268 23.2246 26.5922 23.6539 26.5922C24.4566 26.5922 25.2499 26.3682 26.0339 25.9202C26.8179 25.4535 27.5459 24.8468 28.2179 24.1002C28.8899 23.3535 29.4592 22.5322 29.9259 21.6362L30.2619 21.8882C29.7579 23.0082 29.1139 23.9788 28.3299 24.8002C27.5646 25.6215 26.7246 26.2562 25.8099 26.7042C24.9139 27.1708 23.9992 27.4042 23.0659 27.4042ZM21.6939 22.7002C22.1979 22.5322 22.7672 22.2895 23.4019 21.9722C24.0366 21.6362 24.6432 21.2442 25.2219 20.7962C25.8192 20.3482 26.3046 19.8535 26.6779 19.3122C27.0699 18.7708 27.2659 18.2015 27.2659 17.6042C27.2659 17.3988 27.2286 17.2402 27.1539 17.1282C27.0792 17.0162 26.9206 16.9602 26.6779 16.9602C26.2299 16.9602 25.7539 17.1375 25.2499 17.4922C24.7459 17.8282 24.2606 18.2762 23.7939 18.8362C23.3272 19.3962 22.9072 20.0122 22.5339 20.6842C22.1606 21.3562 21.8806 22.0282 21.6939 22.7002ZM31.3821 26.9002C30.6541 26.9002 30.1128 26.6668 29.7581 26.2002C29.4035 25.7522 29.2261 25.2015 29.2261 24.5482C29.2261 24.1188 29.3008 23.5775 29.4501 22.9242C29.6181 22.2708 29.8328 21.5895 30.0941 20.8802C30.3555 20.1522 30.6541 19.4708 30.9901 18.8362C31.3448 18.2015 31.7181 17.6882 32.1101 17.2962C32.5021 16.8855 32.8848 16.6802 33.2581 16.6802C33.4261 16.6802 33.5661 16.7362 33.6781 16.8482C33.8088 16.9415 33.8741 17.0908 33.8741 17.2962C33.8741 17.5202 33.7248 17.8842 33.4261 18.3882C33.1461 18.8922 32.8101 19.4708 32.4181 20.1242C32.0261 20.7775 31.6808 21.4682 31.3821 22.1962C31.1021 22.9055 30.9621 23.5868 30.9621 24.2402C30.9621 24.9122 31.0741 25.3602 31.2981 25.5842C31.5221 25.8082 31.8675 25.9202 32.3341 25.9202C32.9688 25.9202 33.6408 25.6028 34.3501 24.9682C35.0781 24.3335 35.8435 23.2228 36.6461 21.6362L36.8981 21.9162C36.3568 23.5215 35.5728 24.7535 34.5461 25.6122C33.5381 26.4708 32.4835 26.9002 31.3821 26.9002ZM34.7421 14.0762C34.4435 14.0762 34.1728 14.0015 33.9301 13.8522C33.7061 13.7028 33.5941 13.4695 33.5941 13.1522C33.5941 12.7602 33.8181 12.4242 34.2661 12.1442C34.7328 11.8455 35.1901 11.6962 35.6381 11.6962C35.9181 11.6962 36.1421 11.7615 36.3101 11.8922C36.4781 12.0228 36.5621 12.2468 36.5621 12.5642C36.5621 12.9188 36.3661 13.2642 35.9741 13.6002C35.6008 13.9175 35.1901 14.0762 34.7421 14.0762ZM38.5 27.4602C37.6974 27.4602 37.0814 27.2268 36.652 26.7602C36.2227 26.2935 36.008 25.6028 36.008 24.6882C36.008 23.8668 36.1574 22.8588 36.456 21.6642C36.7734 20.4508 37.1654 19.2095 37.632 17.9402C37.4454 17.9028 37.268 17.8748 37.1 17.8562C36.932 17.8188 36.7734 17.7722 36.624 17.7162V17.2122C36.7734 17.2308 36.9507 17.2495 37.156 17.2682C37.3614 17.2868 37.5947 17.3055 37.856 17.3242C38.248 16.3162 38.668 15.3455 39.116 14.4122C39.564 13.4602 40.0027 12.6202 40.432 11.8922C40.88 11.1455 41.3 10.5575 41.692 10.1282C42.1027 9.68018 42.448 9.45618 42.728 9.45618C42.8774 9.45618 43.008 9.51218 43.12 9.62418C43.2507 9.71751 43.316 9.86685 43.316 10.0722C43.316 10.3895 43.12 10.9122 42.728 11.6402C42.336 12.3495 41.8507 13.1988 41.272 14.1882C40.6934 15.1775 40.1334 16.2508 39.592 17.4082C39.76 17.4082 39.928 17.4082 40.096 17.4082C40.2827 17.4082 40.46 17.4082 40.628 17.4082C41.244 17.4082 41.888 17.3988 42.56 17.3802C43.2507 17.3615 43.9414 17.3148 44.632 17.2402V17.7442C43.6054 17.8562 42.6814 17.9402 41.86 17.9962C41.0574 18.0522 40.3387 18.0802 39.704 18.0802C39.6294 18.0802 39.5547 18.0802 39.48 18.0802C39.424 18.0802 39.3587 18.0802 39.284 18.0802C38.8547 19.0695 38.4907 20.0868 38.192 21.1322C37.8934 22.1775 37.744 23.1948 37.744 24.1842C37.744 24.9868 37.8654 25.5655 38.108 25.9202C38.3507 26.2562 38.752 26.4242 39.312 26.4242C40.2827 26.4242 41.2347 25.9948 42.168 25.1362C43.1014 24.2775 43.9227 23.1108 44.632 21.6362L44.996 21.9162C44.548 22.9615 43.9787 23.9042 43.288 24.7442C42.616 25.5842 41.8694 26.2468 41.048 26.7322C40.2267 27.2175 39.3774 27.4602 38.5 27.4602ZM46.0364 27.0682C45.2337 27.0682 44.6644 26.8162 44.3284 26.3122C43.9924 25.8268 43.8244 25.2295 43.8244 24.5202C43.8244 23.9415 43.9177 23.3442 44.1044 22.7282C44.2911 22.1122 44.5337 21.5335 44.8324 20.9922C45.1497 20.4508 45.4951 20.0122 45.8684 19.6762C46.2604 19.3402 46.6524 19.1722 47.0444 19.1722C47.1377 19.1722 47.2311 19.1908 47.3244 19.2282C47.4364 19.2468 47.5391 19.2748 47.6324 19.3122C47.4644 19.4615 47.2591 19.7415 47.0164 20.1522C46.7924 20.5442 46.5777 21.0015 46.3724 21.5242C46.1671 22.0282 45.9897 22.5322 45.8404 23.0362C45.7097 23.5402 45.6444 23.9695 45.6444 24.3242C45.6444 24.8842 45.7377 25.2948 45.9244 25.5562C46.1111 25.7988 46.3537 25.9202 46.6524 25.9202C47.0444 25.9202 47.5111 25.7148 48.0524 25.3042C48.5937 24.8748 49.1257 24.3335 49.6484 23.6802C49.1257 23.2508 48.7151 22.6908 48.4164 22.0002C48.1364 21.2908 47.9964 20.5722 47.9964 19.8442C47.9964 19.2282 48.0991 18.6495 48.3044 18.1082C48.5284 17.5668 48.8457 17.1375 49.2564 16.8202C49.6671 16.4842 50.1617 16.3162 50.7404 16.3162C51.5057 16.3162 52.0191 16.5215 52.2804 16.9322C52.5417 17.3428 52.6724 17.8562 52.6724 18.4722C52.6724 19.2002 52.4951 20.0122 52.1404 20.9082C51.7857 21.7855 51.3377 22.6348 50.7964 23.4562C51.1324 23.6428 51.4871 23.7362 51.8604 23.7362C52.1591 23.7362 52.4951 23.6802 52.8684 23.5682C53.2417 23.4375 53.6057 23.2228 53.9604 22.9242C54.3337 22.6255 54.6324 22.2242 54.8564 21.7202L55.1924 22.0002C54.8191 22.8775 54.2871 23.5028 53.5964 23.8762C52.9244 24.2308 52.2804 24.4082 51.6644 24.4082C51.4217 24.4082 51.1884 24.3895 50.9644 24.3522C50.7404 24.2962 50.5257 24.2215 50.3204 24.1282C49.6857 24.9682 48.9857 25.6682 48.2204 26.2282C47.4737 26.7882 46.7457 27.0682 46.0364 27.0682ZM50.1524 22.9522C50.6191 22.2615 51.0017 21.5428 51.3004 20.7962C51.6177 20.0308 51.7764 19.3122 51.7764 18.6402C51.7764 18.0988 51.6924 17.7068 51.5244 17.4642C51.3751 17.2028 51.1791 17.0722 50.9364 17.0722C50.5631 17.0722 50.1804 17.3428 49.7884 17.8842C49.3964 18.4255 49.2004 19.1068 49.2004 19.9282C49.2004 20.4695 49.2751 21.0202 49.4244 21.5802C49.5924 22.1215 49.8351 22.5788 50.1524 22.9522ZM64.6004 27.7402C63.7044 27.7402 62.9577 27.4415 62.3604 26.8442C61.7631 26.2468 61.4644 25.3508 61.4644 24.1562C61.4644 23.2228 61.6417 22.3175 61.9964 21.4402C62.3697 20.5442 62.8551 19.7415 63.4524 19.0322C64.0497 18.3228 64.7124 17.7628 65.4404 17.3522C66.1684 16.9228 66.8871 16.7082 67.5964 16.7082C68.3617 16.7082 68.8844 16.9322 69.1644 17.3802C69.4444 17.8282 69.5844 18.2948 69.5844 18.7802C69.5844 19.3215 69.4537 19.7975 69.1924 20.2082C68.9497 20.6188 68.6137 20.8242 68.1844 20.8242C67.8671 20.8242 67.5964 20.6842 67.3724 20.4042C67.6524 20.2548 67.8951 19.9562 68.1004 19.5082C68.3057 19.0415 68.4084 18.6028 68.4084 18.1922C68.4084 17.9682 68.3617 17.8002 68.2684 17.6882C68.1937 17.5575 68.0351 17.4922 67.7924 17.4922C67.2884 17.4922 66.7657 17.7162 66.2244 18.1642C65.7017 18.6122 65.2071 19.1908 64.7404 19.9002C64.2924 20.6095 63.9191 21.3562 63.6204 22.1402C63.3404 22.9242 63.2004 23.6615 63.2004 24.3522C63.2004 24.9308 63.3404 25.4628 63.6204 25.9482C63.9004 26.4335 64.4417 26.6762 65.2444 26.6762C65.9911 26.6762 66.7377 26.4708 67.4844 26.0602C68.2497 25.6495 68.9591 25.0615 69.6124 24.2962C70.2657 23.5308 70.7884 22.6348 71.1804 21.6082L71.5444 21.8882C71.1151 23.0082 70.5271 24.0162 69.7804 24.9122C69.0337 25.7895 68.2124 26.4802 67.3164 26.9842C66.4204 27.4882 65.5151 27.7402 64.6004 27.7402ZM72.5872 27.0682C71.7845 27.0682 71.2152 26.8162 70.8792 26.3122C70.5432 25.8268 70.3752 25.2295 70.3752 24.5202C70.3752 23.9415 70.4685 23.3442 70.6552 22.7282C70.8419 22.1122 71.0845 21.5335 71.3832 20.9922C71.7005 20.4508 72.0459 20.0122 72.4192 19.6762C72.8112 19.3402 73.2032 19.1722 73.5952 19.1722C73.6885 19.1722 73.7819 19.1908 73.8752 19.2282C73.9872 19.2468 74.0899 19.2748 74.1832 19.3122C74.0152 19.4615 73.8099 19.7415 73.5672 20.1522C73.3432 20.5442 73.1285 21.0015 72.9232 21.5242C72.7179 22.0282 72.5405 22.5322 72.3912 23.0362C72.2605 23.5402 72.1952 23.9695 72.1952 24.3242C72.1952 24.8842 72.2885 25.2948 72.4752 25.5562C72.6619 25.7988 72.9045 25.9202 73.2032 25.9202C73.5952 25.9202 74.0619 25.7148 74.6032 25.3042C75.1445 24.8748 75.6765 24.3335 76.1992 23.6802C75.6765 23.2508 75.2659 22.6908 74.9672 22.0002C74.6872 21.2908 74.5472 20.5722 74.5472 19.8442C74.5472 19.2282 74.6499 18.6495 74.8552 18.1082C75.0792 17.5668 75.3965 17.1375 75.8072 16.8202C76.2179 16.4842 76.7125 16.3162 77.2912 16.3162C78.0565 16.3162 78.5699 16.5215 78.8312 16.9322C79.0925 17.3428 79.2232 17.8562 79.2232 18.4722C79.2232 19.2002 79.0459 20.0122 78.6912 20.9082C78.3365 21.7855 77.8885 22.6348 77.3472 23.4562C77.6832 23.6428 78.0379 23.7362 78.4112 23.7362C78.7099 23.7362 79.0459 23.6802 79.4192 23.5682C79.7925 23.4375 80.1565 23.2228 80.5112 22.9242C80.8845 22.6255 81.1832 22.2242 81.4072 21.7202L81.7432 22.0002C81.3699 22.8775 80.8379 23.5028 80.1472 23.8762C79.4752 24.2308 78.8312 24.4082 78.2152 24.4082C77.9725 24.4082 77.7392 24.3895 77.5152 24.3522C77.2912 24.2962 77.0765 24.2215 76.8712 24.1282C76.2365 24.9682 75.5365 25.6682 74.7712 26.2282C74.0245 26.7882 73.2965 27.0682 72.5872 27.0682ZM76.7032 22.9522C77.1699 22.2615 77.5525 21.5428 77.8512 20.7962C78.1685 20.0308 78.3272 19.3122 78.3272 18.6402C78.3272 18.0988 78.2432 17.7068 78.0752 17.4642C77.9259 17.2028 77.7299 17.0722 77.4872 17.0722C77.1139 17.0722 76.7312 17.3428 76.3392 17.8842C75.9472 18.4255 75.7512 19.1068 75.7512 19.9282C75.7512 20.4695 75.8259 21.0202 75.9752 21.5802C76.1432 22.1215 76.3859 22.5788 76.7032 22.9522ZM94.9938 27.0402C94.3404 27.0402 93.8644 26.8348 93.5658 26.4242C93.2671 26.0322 93.1178 25.5562 93.1178 24.9962C93.1178 24.5295 93.1831 24.0628 93.3138 23.5962C93.4631 23.1295 93.6031 22.6722 93.7338 22.2242C93.8831 21.7762 93.9578 21.3748 93.9578 21.0202C93.9578 20.6468 93.8738 20.3855 93.7058 20.2362C93.5378 20.0868 93.3511 20.0122 93.1458 20.0122C92.6791 20.0122 92.1658 20.3762 91.6058 21.1042C91.0644 21.8322 90.3551 22.8588 89.4778 24.1842C89.1791 24.6322 88.9271 25.0895 88.7218 25.5562C88.5164 26.0042 88.3204 26.4148 88.1338 26.7882C87.9844 26.7882 87.7978 26.7695 87.5738 26.7322C87.3498 26.6948 87.1444 26.6295 86.9578 26.5362C86.7898 26.4615 86.7058 26.3588 86.7058 26.2282C86.7058 26.0975 86.7898 25.7895 86.9578 25.3042C87.1444 24.8002 87.3498 24.2215 87.5738 23.5682C87.8164 22.8962 88.0218 22.2242 88.1898 21.5522C88.3764 20.8615 88.4698 20.2735 88.4698 19.7882C88.4698 19.4708 88.4138 19.2188 88.3018 19.0322C88.2084 18.8268 88.0311 18.7242 87.7698 18.7242C87.3591 18.7242 86.8644 18.9762 86.2858 19.4802C85.7071 19.9655 85.1098 20.6095 84.4938 21.4122C83.8778 22.2148 83.2898 23.1015 82.7298 24.0722C82.1884 25.0242 81.7498 25.9762 81.4138 26.9282C81.2458 26.9282 81.0404 26.9002 80.7978 26.8442C80.5551 26.7882 80.3498 26.7135 80.1818 26.6202C79.9951 26.5268 79.9018 26.4335 79.9018 26.3402C79.9018 26.2282 80.0044 25.9015 80.2098 25.3602C80.3964 24.8002 80.6204 24.1375 80.8818 23.3722C81.1244 22.5882 81.3391 21.7948 81.5258 20.9922C81.7311 20.1895 81.8338 19.4802 81.8338 18.8642C81.9458 18.7335 82.1231 18.6028 82.3658 18.4722C82.6084 18.3415 82.8604 18.2762 83.1218 18.2762C83.3831 18.2762 83.5698 18.3415 83.6818 18.4722C83.8124 18.6028 83.8778 18.7802 83.8778 19.0042C83.8778 19.2468 83.8031 19.6668 83.6538 20.2642C83.5231 20.8428 83.3551 21.4868 83.1498 22.1962C83.5231 21.5988 83.9431 20.9922 84.4098 20.3762C84.8951 19.7415 85.3991 19.1628 85.9218 18.6402C86.4444 18.1175 86.9671 17.6975 87.4898 17.3802C88.0311 17.0442 88.5538 16.8762 89.0578 16.8762C89.6364 16.8762 90.0284 17.0908 90.2338 17.5202C90.4578 17.9308 90.5698 18.4255 90.5698 19.0042C90.5698 19.4708 90.5138 19.9655 90.4018 20.4882C90.3084 20.9922 90.1964 21.4682 90.0658 21.9162C89.9351 22.3455 89.8138 22.6908 89.7018 22.9522C90.0938 22.2428 90.5231 21.5615 90.9898 20.9082C91.4751 20.2362 91.9978 19.6948 92.5578 19.2842C93.1178 18.8548 93.7151 18.6402 94.3498 18.6402C94.9471 18.6402 95.3578 18.8175 95.5818 19.1722C95.8244 19.5268 95.9458 19.9468 95.9458 20.4322C95.9458 20.9175 95.8618 21.4495 95.6938 22.0282C95.5258 22.6068 95.3484 23.1668 95.1618 23.7082C94.9938 24.2495 94.9098 24.7162 94.9098 25.1082C94.9098 25.3508 94.9658 25.5748 95.0778 25.7802C95.2084 25.9668 95.4324 26.0602 95.7498 26.0602C96.2724 26.0602 96.7578 25.8268 97.2058 25.3602C97.6724 24.8748 98.1018 24.2962 98.4938 23.6242C98.8858 22.9335 99.2218 22.2708 99.5018 21.6362L99.8378 22.0282C99.5391 22.8122 99.1564 23.5962 98.6898 24.3802C98.2231 25.1455 97.6724 25.7802 97.0378 26.2842C96.4218 26.7882 95.7404 27.0402 94.9938 27.0402ZM110.513 28.6082C109.654 28.5335 109.122 28.3002 108.917 27.9082C108.711 27.5162 108.609 27.0122 108.609 26.3962C108.609 25.7242 108.749 24.9028 109.029 23.9322C109.309 22.9428 109.654 21.8695 110.065 20.7122C110.494 19.5548 110.923 18.3975 111.353 17.2402C111.129 17.2588 110.886 17.2868 110.625 17.3242C110.382 17.3428 110.074 17.3802 109.701 17.4362C109.327 17.4735 108.842 17.5388 108.245 17.6322C108.282 17.1468 108.459 16.7735 108.777 16.5122C109.113 16.2322 109.551 16.0268 110.093 15.8962C110.634 15.7655 111.241 15.6908 111.913 15.6722C112.435 14.2348 112.967 12.8348 113.509 11.4722C114.069 10.0908 114.619 8.83085 115.161 7.69218C114.974 7.67351 114.787 7.66418 114.601 7.66418C114.433 7.64551 114.255 7.63618 114.069 7.63618C112.874 7.63618 111.95 7.75751 111.297 8.00018C110.643 8.24285 110.195 8.61618 109.953 9.12018C109.71 9.62418 109.589 10.2682 109.589 11.0522C109.589 11.4628 109.617 11.8455 109.673 12.2002C109.729 12.5362 109.822 12.8908 109.953 13.2642C109.318 13.1522 108.851 12.9095 108.553 12.5362C108.254 12.1442 108.105 11.6588 108.105 11.0802C108.105 10.1095 108.45 9.26018 109.141 8.53218C109.831 7.78551 110.755 7.20685 111.913 6.79618C113.089 6.36685 114.386 6.15218 115.805 6.15218C116.794 6.15218 117.746 6.22685 118.661 6.37618C119.594 6.50685 120.499 6.57218 121.377 6.57218C121.769 6.57218 122.123 6.55351 122.441 6.51618C122.777 6.46018 123.113 6.38551 123.449 6.29218C122.758 7.07618 122.179 7.59885 121.713 7.86018C121.246 8.12151 120.77 8.25218 120.285 8.25218C119.855 8.25218 119.295 8.19618 118.605 8.08418C117.933 7.95351 117.167 7.85085 116.309 7.77618C116.066 8.39218 115.795 9.13885 115.497 10.0162C115.198 10.8748 114.89 11.7988 114.573 12.7882C114.255 13.7588 113.938 14.7295 113.621 15.7002C114.554 15.7562 115.431 15.8402 116.253 15.9522C117.093 16.0642 117.849 16.1295 118.521 16.1482C118.371 16.3722 118.194 16.5495 117.989 16.6802C117.802 16.7922 117.531 16.8762 117.177 16.9322C116.822 16.9882 116.327 17.0348 115.693 17.0722C115.077 17.0908 114.246 17.1095 113.201 17.1282C113.089 17.5202 112.949 17.9868 112.781 18.5282C112.613 19.0695 112.463 19.5828 112.333 20.0682C112.202 20.5535 112.099 20.9082 112.025 21.1322C111.614 22.5695 111.259 23.9135 110.961 25.1642C110.681 26.4148 110.531 27.5628 110.513 28.6082ZM121.75 27.4042C120.611 27.4042 119.752 27.0868 119.174 26.4522C118.614 25.8362 118.334 25.0708 118.334 24.1562C118.334 23.3162 118.539 22.4295 118.95 21.4962C119.379 20.5628 119.939 19.6855 120.63 18.8642C121.339 18.0428 122.114 17.3802 122.954 16.8762C123.794 16.3535 124.624 16.0922 125.446 16.0922C125.875 16.0922 126.267 16.2042 126.622 16.4282C126.995 16.6522 127.182 17.1095 127.182 17.8002C127.182 18.5095 126.967 19.1815 126.538 19.8162C126.127 20.4322 125.576 20.9828 124.886 21.4682C124.214 21.9535 123.467 22.3548 122.646 22.6722C121.843 22.9708 121.04 23.1575 120.238 23.2322C120.2 23.4188 120.172 23.5962 120.154 23.7642C120.135 23.9322 120.126 24.0908 120.126 24.2402C120.126 24.5202 120.154 24.8002 120.21 25.0802C120.284 25.3602 120.406 25.6215 120.574 25.8642C120.742 26.0882 120.966 26.2655 121.246 26.3962C121.544 26.5268 121.908 26.5922 122.338 26.5922C123.14 26.5922 123.934 26.3682 124.718 25.9202C125.502 25.4535 126.23 24.8468 126.902 24.1002C127.574 23.3535 128.143 22.5322 128.61 21.6362L128.946 21.8882C128.442 23.0082 127.798 23.9788 127.014 24.8002C126.248 25.6215 125.408 26.2562 124.494 26.7042C123.598 27.1708 122.683 27.4042 121.75 27.4042ZM120.378 22.7002C120.882 22.5322 121.451 22.2895 122.086 21.9722C122.72 21.6362 123.327 21.2442 123.906 20.7962C124.503 20.3482 124.988 19.8535 125.362 19.3122C125.754 18.7708 125.95 18.2015 125.95 17.6042C125.95 17.3988 125.912 17.2402 125.838 17.1282C125.763 17.0162 125.604 16.9602 125.362 16.9602C124.914 16.9602 124.438 17.1375 123.934 17.4922C123.43 17.8282 122.944 18.2762 122.478 18.8362C122.011 19.3962 121.591 20.0122 121.218 20.6842C120.844 21.3562 120.564 22.0282 120.378 22.7002ZM130.374 27.0122C129.571 27.0122 128.992 26.7322 128.638 26.1722C128.302 25.6308 128.134 24.9495 128.134 24.1282C128.134 23.2322 128.302 22.1682 128.638 20.9362C128.974 19.7042 129.412 18.4068 129.954 17.0442C130.514 15.6815 131.12 14.3562 131.774 13.0682C132.427 11.7615 133.08 10.5762 133.734 9.51218C134.387 8.44818 134.984 7.59885 135.526 6.96418C136.086 6.32951 136.524 6.01218 136.842 6.01218C137.047 6.01218 137.215 6.13351 137.346 6.37618C137.476 6.60018 137.579 6.88018 137.654 7.21618C137.728 7.53351 137.766 7.82285 137.766 8.08418C137.766 8.58818 137.635 9.25085 137.374 10.0722C137.131 10.8748 136.776 11.7802 136.31 12.7882C135.862 13.7775 135.32 14.7855 134.686 15.8122C134.07 16.8202 133.388 17.7908 132.642 18.7242C131.914 19.6575 131.139 20.4602 130.318 21.1322C130.206 21.6362 130.112 22.1308 130.038 22.6162C129.982 23.0828 129.954 23.5308 129.954 23.9602C129.954 24.6882 130.056 25.2295 130.262 25.5842C130.467 25.9388 130.775 26.1162 131.186 26.1162C131.69 26.1162 132.184 25.8922 132.67 25.4442C133.174 24.9962 133.64 24.4362 134.07 23.7642C134.518 23.0735 134.9 22.3642 135.218 21.6362L135.638 21.8602C134.891 23.4468 134.079 24.7068 133.202 25.6402C132.324 26.5548 131.382 27.0122 130.374 27.0122ZM130.57 20.1802C131.223 19.5268 131.858 18.7802 132.474 17.9402C133.09 17.0815 133.659 16.1948 134.182 15.2802C134.723 14.3655 135.199 13.4788 135.61 12.6202C136.02 11.7615 136.338 10.9962 136.562 10.3242C136.786 9.63351 136.898 9.10151 136.898 8.72818C136.898 8.54151 136.87 8.42018 136.814 8.36418C136.776 8.30818 136.739 8.28018 136.702 8.28018C136.552 8.28018 136.291 8.52285 135.918 9.00818C135.563 9.47485 135.143 10.1095 134.658 10.9122C134.172 11.7148 133.678 12.6295 133.174 13.6562C132.67 14.6828 132.184 15.7562 131.718 16.8762C131.27 17.9962 130.887 19.0975 130.57 20.1802ZM137.047 27.4602C136.244 27.4602 135.628 27.2268 135.199 26.7602C134.77 26.2935 134.555 25.6028 134.555 24.6882C134.555 23.8668 134.704 22.8588 135.003 21.6642C135.32 20.4508 135.712 19.2095 136.179 17.9402C135.992 17.9028 135.815 17.8748 135.647 17.8562C135.479 17.8188 135.32 17.7722 135.171 17.7162V17.2122C135.32 17.2308 135.498 17.2495 135.703 17.2682C135.908 17.2868 136.142 17.3055 136.403 17.3242C136.795 16.3162 137.215 15.3455 137.663 14.4122C138.111 13.4602 138.55 12.6202 138.979 11.8922C139.427 11.1455 139.847 10.5575 140.239 10.1282C140.65 9.68018 140.995 9.45618 141.275 9.45618C141.424 9.45618 141.555 9.51218 141.667 9.62418C141.798 9.71751 141.863 9.86685 141.863 10.0722C141.863 10.3895 141.667 10.9122 141.275 11.6402C140.883 12.3495 140.398 13.1988 139.819 14.1882C139.24 15.1775 138.68 16.2508 138.139 17.4082C138.307 17.4082 138.475 17.4082 138.643 17.4082C138.83 17.4082 139.007 17.4082 139.175 17.4082C139.791 17.4082 140.435 17.3988 141.107 17.3802C141.798 17.3615 142.488 17.3148 143.179 17.2402V17.7442C142.152 17.8562 141.228 17.9402 140.407 17.9962C139.604 18.0522 138.886 18.0802 138.251 18.0802C138.176 18.0802 138.102 18.0802 138.027 18.0802C137.971 18.0802 137.906 18.0802 137.831 18.0802C137.402 19.0695 137.038 20.0868 136.739 21.1322C136.44 22.1775 136.291 23.1948 136.291 24.1842C136.291 24.9868 136.412 25.5655 136.655 25.9202C136.898 26.2562 137.299 26.4242 137.859 26.4242C138.83 26.4242 139.782 25.9948 140.715 25.1362C141.648 24.2775 142.47 23.1108 143.179 21.6362L143.543 21.9162C143.095 22.9615 142.526 23.9042 141.835 24.7442C141.163 25.5842 140.416 26.2468 139.595 26.7322C138.774 27.2175 137.924 27.4602 137.047 27.4602ZM147.495 26.9002C146.861 26.9002 146.357 26.7322 145.983 26.3962C145.629 26.0602 145.451 25.6215 145.451 25.0802C145.451 24.5202 145.582 23.9322 145.843 23.3162C146.105 22.7002 146.357 22.0935 146.599 21.4962C146.861 20.8802 146.991 20.3295 146.991 19.8442C146.991 19.2468 146.814 18.8082 146.459 18.5282C146.123 18.2295 145.778 17.9588 145.423 17.7162C144.994 18.8175 144.546 19.8628 144.079 20.8522C143.613 21.8415 143.23 22.5882 142.931 23.0922L142.679 22.6162C142.941 22.1308 143.277 21.4215 143.687 20.4882C144.117 19.5548 144.537 18.4908 144.947 17.2962C144.761 17.1095 144.667 16.8855 144.667 16.6242C144.667 16.0642 144.826 15.6068 145.143 15.2522C145.461 14.8975 145.694 14.7202 145.843 14.7202C146.049 14.7202 146.161 14.8135 146.179 15.0002C146.217 15.1682 146.235 15.2988 146.235 15.3922C146.235 15.4855 146.179 15.6722 146.067 15.9522C145.974 16.2135 145.927 16.3722 145.927 16.4282C145.927 16.6895 146.067 16.9322 146.347 17.1562C146.646 17.3615 146.982 17.6042 147.355 17.8842C147.729 18.1455 148.055 18.4722 148.335 18.8642C148.634 19.2375 148.783 19.7228 148.783 20.3202C148.783 20.8802 148.662 21.4495 148.419 22.0282C148.195 22.6068 147.962 23.1575 147.719 23.6802C147.495 24.2028 147.383 24.6602 147.383 25.0522C147.383 25.3882 147.467 25.6122 147.635 25.7242C147.803 25.8362 147.999 25.8922 148.223 25.8922C148.671 25.8922 149.129 25.7522 149.595 25.4722C150.081 25.1922 150.547 24.8375 150.995 24.4082C151.443 23.9788 151.845 23.5308 152.199 23.0642C152.554 22.5788 152.815 22.1308 152.983 21.7202L153.347 22.0002C152.993 22.7842 152.507 23.5588 151.891 24.3242C151.275 25.0708 150.585 25.6868 149.819 26.1722C149.073 26.6575 148.298 26.9002 147.495 26.9002ZM154.318 27.0682C153.515 27.0682 152.946 26.8162 152.61 26.3122C152.274 25.8268 152.106 25.2295 152.106 24.5202C152.106 23.9415 152.199 23.3442 152.386 22.7282C152.572 22.1122 152.815 21.5335 153.114 20.9922C153.431 20.4508 153.776 20.0122 154.15 19.6762C154.542 19.3402 154.934 19.1722 155.326 19.1722C155.419 19.1722 155.512 19.1908 155.606 19.2282C155.718 19.2468 155.82 19.2748 155.914 19.3122C155.746 19.4615 155.54 19.7415 155.298 20.1522C155.074 20.5442 154.859 21.0015 154.654 21.5242C154.448 22.0282 154.271 22.5322 154.122 23.0362C153.991 23.5402 153.926 23.9695 153.926 24.3242C153.926 24.8842 154.019 25.2948 154.206 25.5562C154.392 25.7988 154.635 25.9202 154.934 25.9202C155.326 25.9202 155.792 25.7148 156.334 25.3042C156.875 24.8748 157.407 24.3335 157.93 23.6802C157.407 23.2508 156.996 22.6908 156.698 22.0002C156.418 21.2908 156.278 20.5722 156.278 19.8442C156.278 19.2282 156.38 18.6495 156.586 18.1082C156.81 17.5668 157.127 17.1375 157.538 16.8202C157.948 16.4842 158.443 16.3162 159.022 16.3162C159.787 16.3162 160.3 16.5215 160.562 16.9322C160.823 17.3428 160.954 17.8562 160.954 18.4722C160.954 19.2002 160.776 20.0122 160.422 20.9082C160.067 21.7855 159.619 22.6348 159.078 23.4562C159.414 23.6428 159.768 23.7362 160.142 23.7362C160.44 23.7362 160.776 23.6802 161.15 23.5682C161.523 23.4375 161.887 23.2228 162.242 22.9242C162.615 22.6255 162.914 22.2242 163.138 21.7202L163.474 22.0002C163.1 22.8775 162.568 23.5028 161.878 23.8762C161.206 24.2308 160.562 24.4082 159.946 24.4082C159.703 24.4082 159.47 24.3895 159.246 24.3522C159.022 24.2962 158.807 24.2215 158.602 24.1282C157.967 24.9682 157.267 25.6682 156.502 26.2282C155.755 26.7882 155.027 27.0682 154.318 27.0682ZM158.434 22.9522C158.9 22.2615 159.283 21.5428 159.582 20.7962C159.899 20.0308 160.058 19.3122 160.058 18.6402C160.058 18.0988 159.974 17.7068 159.806 17.4642C159.656 17.2028 159.46 17.0722 159.218 17.0722C158.844 17.0722 158.462 17.3428 158.07 17.8842C157.678 18.4255 157.482 19.1068 157.482 19.9282C157.482 20.4695 157.556 21.0202 157.706 21.5802C157.874 22.1215 158.116 22.5788 158.434 22.9522Z" fill="#224F34"/>
<path d="M119.759 36.3196C123.171 36.0426 187.895 29.5476 187.895 29.5476C166.583 30.9393 122.924 33.4684 119.545 33.7427C116.165 34.0171 116.347 36.5966 119.759 36.3196Z" fill="#224F34" stroke="#224F34" stroke-linejoin="round"/>
<path d="M121.106 34.0865C121.978 34.0157 122.655 33.9656 123.133 34.0667C123.359 34.1145 123.489 34.187 123.567 34.2657C123.637 34.3378 123.708 34.4589 123.728 34.6979C123.748 34.9368 123.698 35.0677 123.64 35.1503C123.577 35.2403 123.461 35.3329 123.246 35.4164C122.791 35.5933 122.114 35.6531 121.242 35.7239C120.37 35.7946 119.693 35.8448 119.215 35.7436C118.989 35.6959 118.859 35.6233 118.782 35.5447C118.711 35.4726 118.64 35.3514 118.621 35.1125C118.601 34.8735 118.65 34.7427 118.708 34.6601C118.771 34.57 118.888 34.4775 119.102 34.394C119.557 34.2171 120.234 34.1573 121.106 34.0865Z" fill="white" stroke="#224F34"/>
<path d="M123.581 30.6722C122.736 36.8388 110.916 40.6722 95.2121 40.6722C75.9619 40.6722 71.265 31.2993 64.3105 32.6722C54.1789 34.6722 55.192 39.1722 37.9682 40.6722C24.1891 41.8722 8.24861 35.8388 3.01392 32.6722C1.49417 30.5055 -0.633482 25.1722 3.01392 21.1722C7.57317 16.1722 13.1456 16.1722 10.1061 11.6722" stroke="#224F34" stroke-linecap="round"/>
</svg>
