<svg width="19" height="19" viewBox="0 0 19 19" fill="none" xmlns="http://www.w3.org/2000/svg">
<path d="M1.54395 8.4115L0.543946 8.4115L0.543946 10.4115L1.54395 10.4115L1.54395 8.4115ZM17.5439 10.4115C18.0962 10.4115 18.5439 9.96379 18.5439 9.4115C18.5439 8.85922 18.0962 8.4115 17.5439 8.4115L17.5439 10.4115ZM12.3901 1.37109L12.3901 0.371095L10.3901 0.371095L10.3901 1.37109L12.3901 1.37109ZM16.9017 10.1451C17.3515 10.4656 17.9759 10.3608 18.2965 9.91104C18.617 9.46128 18.5122 8.83684 18.0624 8.51632L16.9017 10.1451ZM10.3901 17.3711L10.3901 18.3711L12.3901 18.3711L12.3901 17.3711L10.3901 17.3711ZM1.54395 10.4115L17.482 10.4115L17.482 8.4115L1.54395 8.4115L1.54395 10.4115ZM17.482 10.4115L17.5439 10.4115L17.5439 8.4115L17.482 8.4115L17.482 10.4115ZM10.3901 1.37109C10.3901 2.54279 10.8766 3.68121 11.4935 4.67036C12.1183 5.67238 12.9352 6.61338 13.7256 7.41143C14.5197 8.21316 15.3101 8.89342 15.9 9.37225C16.1958 9.61229 16.4431 9.80323 16.6177 9.93513C16.7051 10.0011 16.7745 10.0524 16.8228 10.0878C16.8469 10.1055 16.8658 10.1192 16.8791 10.1288C16.8858 10.1336 16.891 10.1374 16.8948 10.1401C16.8967 10.1414 16.8982 10.1425 16.8994 10.1434C16.9 10.1438 16.9004 10.1441 16.9008 10.1444C16.901 10.1446 16.9013 10.1447 16.9014 10.1448C16.9016 10.1449 16.9017 10.1451 17.4821 9.33069C18.0624 8.51632 18.0626 8.51642 18.0627 8.5165C18.0627 8.5165 18.0628 8.51656 18.0628 8.51657C18.0628 8.51659 18.0628 8.51654 18.0626 8.51643C18.0623 8.51621 18.0616 8.51572 18.0606 8.51498C18.0585 8.51349 18.055 8.51097 18.0501 8.50745C18.0403 8.50039 18.025 8.48929 18.0046 8.4743C17.9636 8.44432 17.9021 8.39882 17.8229 8.33902C17.6644 8.21937 17.4358 8.04287 17.1604 7.81937C16.6081 7.37111 15.8755 6.73989 15.1466 6.00399C14.414 5.26441 13.7079 4.44165 13.1905 3.61204C12.6651 2.76957 12.3901 2.00849 12.3901 1.37109L10.3901 1.37109ZM17.482 9.4115C17.0152 8.52717 17.0149 8.52732 17.0146 8.52749C17.0145 8.52756 17.0141 8.52773 17.0138 8.52788C17.0133 8.52816 17.0127 8.5285 17.012 8.52888C17.0105 8.52965 17.0087 8.53062 17.0065 8.53178C17.0021 8.53411 16.9963 8.53724 16.9891 8.54115C16.9746 8.54897 16.9545 8.55993 16.9291 8.574C16.8783 8.60213 16.8064 8.64268 16.7163 8.69526C16.5362 8.80034 16.2829 8.95388 15.9807 9.15265C15.3782 9.5489 14.5713 10.1315 13.7601 10.8756C12.1746 12.3298 10.3901 14.5702 10.3901 17.3711L12.3901 17.3711C12.3901 15.4286 13.6515 13.6891 15.112 12.3494C15.8238 11.6966 16.5399 11.1786 17.0797 10.8236C17.3486 10.6468 17.5712 10.512 17.7243 10.4227C17.8008 10.378 17.8597 10.3449 17.8982 10.3236C17.9174 10.3129 17.9315 10.3052 17.9401 10.3006C17.9443 10.2983 17.9473 10.2967 17.9488 10.2959C17.9495 10.2955 17.9499 10.2953 17.9499 10.2953C17.9499 10.2953 17.9499 10.2953 17.9497 10.2954C17.9496 10.2955 17.9494 10.2956 17.9494 10.2956C17.9492 10.2957 17.9489 10.2958 17.482 9.4115Z" fill="#224F34"/>
</svg>
